#!OML:ASF \\sashay\E\basketball\basketball\Project 1\Capture day 1\Session 1\Subject.ASF
:FULLY-SPECIFIED
:DEGREES
474
root -2.77875 14.6539 -2.50653 190.944 -118.843 -190.455
lowerback 24.5903 -5.03847 -5.43572
upperback 8.45373 -8.00393 6.43917
thorax -2.40021 -4.50955 12.3109
lowerneck 3.22422 -14.6862 -21.5815
upperneck -6.81271 -21.5714 37.6254
head 4.86051 -11.7073 14.429
rclavicle 1.24178e-013 -9.59136e-014
rhumerus 40.8363 4.309 -64.9621
rradius 103.094
rwrist -32.5872
rhand -15.058 30.4331
rfingers 7.12502
rthumb 11.1088 0.74716
lclavicle 1.24178e-013 -9.59136e-014
lhumerus 52.0814 -17.8573 73.4088
lradius 91.1692
lwrist 37.6014
lhand -22.6837 28.705
lfingers 7.12502
lthumb 3.74857 58.6518
rfemur -22.8497 0.768668 1.27856
rtibia 30.3688
rfoot -2.30071 -5.24026
rtoes -55.0649
lfemur -32.416 29.4625 -9.90791
ltibia 74.3867
lfoot -13.7331 -11.8095
ltoes -0.750018
475
root -2.87972 14.5533 -2.69101 190.248 -121.154 -190.104
lowerback 24.7979 -5.06061 -5.03433
upperback 8.81518 -7.95329 6.08369
thorax -2.23217 -4.48414 11.6504
lowerneck 3.94557 -14.7419 -21.1025
upperneck -8.68931 -21.4095 38.9235
head 4.34339 -11.9046 14.9967
rclavicle 1.98288e-014 1.02374e-014
rhumerus 39.5858 4.86592 -66.305
rradius 103.53
rwrist -32.2923
rhand -15.1148 30.2292
rfingers 7.12502
rthumb 11.0541 0.540288
lclavicle 1.98288e-014 1.02374e-014
lhumerus 51.4479 -18.6005 72.9448
lradius 92.0214
lwrist 37.7929
lhand -23.0684 29.1367
lfingers 7.12502
lthumb 3.37703 59.0897
rfemur -22.7264 -1.2013 1.90918
rtibia 32.9041
rfoot -5.71394 -6.68433
rtoes -55.3156
lfemur -33.6318 29.4108 -9.58143
ltibia 75.8929
lfoot -14.457 -11.3996
ltoes -3.86774
476
root -2.97687 14.4633 -2.86403 189.176 -123.286 -189.404
lowerback 25.1363 -5.04827 -5.01771
upperback 9.06906 -7.94216 5.87549
thorax -2.15249 -4.48333 11.4235
lowerneck 3.36501 -15.1652 -20.7681
upperneck -8.9645 -21.8593 39.0661
head 4.50001 -12.1024 14.8002
rclavicle 6.21202e-014 -4.73108e-014
rhumerus 38.4297 5.87905 -67.1824
rradius 104.006
rwrist -32.0476
rhand -15.2872 30.6343
rfingers 7.12502
rthumb 10.8877 0.936577
lclavicle 6.21202e-014 -4.73108e-014
lhumerus 50.4474 -19.0451 72.9508
lradius 92.9794
lwrist 37.1818
lhand -23.5545 30.0905
lfingers 7.12502
lthumb 2.90765 60.0505
rfemur -22.7374 -3.29818 2.24521
rtibia 35.5599
rfoot -8.67508 -7.551
rtoes -56.0272
lfemur -34.5052 29.1745 -9.51812
ltibia 77.0841
lfoot -15.3491 -10.8604
ltoes -7.61263
477
root -3.05964 14.3729 -3.02681 188.502 -125.035 -189.157
lowerback 25.5591 -4.88172 -4.84846
upperback 9.20064 -7.6878 5.70625
thorax -2.32051 -4.33582 11.1232
lowerneck 3.18812 -15.4831 -20.8218
upperneck -9.42677 -22.1881 39.2884
head 4.56095 -12.2818 14.7801
rclavicle 9.93923e-016 -1.98785e-014
rhumerus 36.8981 7.05301 -67.9092
rradius 104.498
rwrist -31.764
rhand -15.7276 31.3983
rfingers 7.12502
rthumb 10.463 1.67866
lclavicle 9.93923e-016 -1.98785e-014
lhumerus 48.9146 -19.6928 73.4913
lradius 94.0364
lwrist 36.3654
lhand -24.0175 31.0964
lfingers 7.12502
lthumb 2.46049 61.0619
rfemur -22.9682 -5.23955 2.77609
rtibia 38.2199
rfoot -10.1758 -8.76363
rtoes -56.7295
lfemur -35.1806 28.9427 -9.22281
ltibia 78.1086
lfoot -16.024 -10.6479
ltoes -8.16407
478
root -3.13699 14.2864 -3.17795 189.033 -126.581 -190.307
lowerback 25.8767 -4.74294 -3.79229
upperback 9.39577 -7.25855 5.64566
thorax -2.50505 -4.08803 10.3701
lowerneck 4.89153 -15.1084 -20.717
upperneck -11.4411 -21.4129 40.2375
head 3.6295 -12.2656 15.5872
rclavicle 1.36167e-014 1.59028e-015
rhumerus 35.2269 8.27255 -68.795
rradius 104.944
rwrist -30.7045
rhand -16.4053 32.1072
rfingers 7.12502
rthumb 9.80912 2.35572
lclavicle 1.36167e-014 1.59028e-015
lhumerus 47.2558 -20.398 74.124
lradius 95.3076
lwrist 35.7695
lhand -24.0521 32.0972
lfingers 7.12502
lthumb 2.42704 62.0631
rfemur -23.5154 -6.9094 4.18685
rtibia 40.8807
rfoot -10.9585 -9.76322
rtoes -56.7342
lfemur -35.8172 28.8921 -7.98995
ltibia 79.0771
lfoot -16.6288 -10.7418
ltoes -8.05573
479
root -3.20948 14.2099 -3.31235 190.223 -127.814 -192.072
lowerback 26.2286 -4.40189 -2.80256
upperback 9.56135 -6.57053 6.14037
thorax -2.67578 -3.74103 10.2273
lowerneck 5.26327 -15.1689 -21.0776
upperneck -12.6665 -21.2569 40.5904
head 3.30474 -12.3091 15.8947
rclavicle 1.28514e-013 -7.13637e-014
rhumerus 34.065 9.62807 -68.8666
rradius 105.389
rwrist -30.0703
rhand -17.4084 31.5648
rfingers 7.12502
rthumb 8.84127 1.77
lclavicle 1.28514e-013 -7.13637e-014
lhumerus 45.0068 -20.5952 76.09
lradius 96.1581
lwrist 34.9975
lhand -24.4259 30.799
lfingers 7.12502
lthumb 2.06607 60.7688
rfemur -24.5253 -8.14476 6.00337
rtibia 43.4394
rfoot -12.0109 -9.68271
rtoes -56.1918
lfemur -36.4901 29.0836 -6.37823
ltibia 79.8833
lfoot -17.2584 -10.6765
ltoes -9.0139
